<?xml version="1.0" standalone="no"?>
<!DOCTYPE svg PUBLIC "-//W3C//DTD SVG 20010904//EN"
 "http://www.w3.org/TR/2001/REC-SVG-20010904/DTD/svg10.dtd">
<svg version="1.0" xmlns="http://www.w3.org/2000/svg"
 width="2584.000000pt" height="2584.000000pt" viewBox="0 0 2584.000000 2584.000000"
 preserveAspectRatio="xMidYMid meet">
<metadata>
Created by potrace 1.14, written by Peter Selinger 2001-2017
</metadata>
<g transform="translate(0.000000,2584.000000) scale(0.100000,-0.100000)"
fill="#000000" stroke="none">
<path d="M12533 21788 c-228 -304 -10795 -15478 -10789 -15493 3 -8 13 -15 23
-15 11 0 2334 2210 5418 5151 2969 2833 5415 5163 5434 5178 20 15 45 25 57
23 16 -2 640 -1068 2702 -4611 1691 -2906 2682 -4618 2682 -4635 0 -18 -6 -27
-22 -31 -13 -2 -3504 -608 -7758 -1346 -4254 -737 -7738 -1343 -7742 -1345 -5
-3 -8 -12 -8 -20 0 -12 1372 -14 10556 -14 9806 0 10556 1 10550 17 -4 9
-2125 3364 -4713 7457 -2589 4093 -5028 7950 -5421 8571 -844 1335 -811 1285
-827 1285 -7 0 -71 -78 -142 -172z"/>
<path d="M10360 9800 l0 -2120 295 0 296 0 -4 1688 c-2 928 -7 1699 -11 1715
-6 18 -5 27 3 27 6 0 11 -9 11 -19 0 -11 7 -26 15 -34 8 -8 24 -39 36 -68 11
-30 24 -56 28 -59 13 -10 38 -55 45 -82 3 -16 11 -28 16 -28 5 0 17 -16 26
-36 9 -20 23 -38 31 -41 7 -3 13 -12 13 -20 0 -14 36 -81 50 -93 3 -3 17 -26
30 -52 14 -27 28 -48 32 -48 4 0 17 -22 29 -49 11 -27 27 -52 35 -55 8 -3 14
-14 14 -24 0 -11 10 -30 23 -43 12 -14 33 -47 47 -74 14 -28 30 -53 36 -57 6
-4 19 -28 28 -53 10 -25 22 -45 26 -45 5 0 17 -16 26 -36 9 -20 23 -38 31 -41
7 -3 13 -10 13 -16 0 -18 53 -118 73 -139 9 -10 17 -22 17 -28 0 -5 8 -18 18
-28 9 -10 28 -40 41 -65 13 -26 28 -47 32 -47 5 0 9 -8 9 -17 0 -10 9 -29 20
-43 11 -14 20 -31 20 -37 0 -7 5 -13 10 -13 6 0 19 -17 28 -38 9 -21 27 -48
40 -62 12 -13 22 -32 22 -42 0 -10 9 -27 20 -38 11 -11 20 -23 20 -27 0 -5 9
-19 20 -33 11 -14 20 -30 20 -37 0 -7 11 -24 24 -38 14 -15 28 -40 31 -56 4
-16 11 -29 16 -29 5 0 18 -18 29 -40 11 -22 24 -40 28 -40 4 0 13 -15 20 -33
7 -18 20 -42 30 -53 10 -10 29 -41 42 -69 13 -27 29 -53 35 -57 7 -4 18 -22
26 -40 7 -18 23 -44 36 -57 13 -13 23 -31 23 -40 0 -10 9 -27 20 -39 11 -12
20 -25 20 -29 0 -4 9 -19 20 -33 11 -14 20 -33 20 -43 0 -10 6 -20 14 -23 8
-3 24 -27 36 -52 12 -26 26 -49 29 -52 4 -3 18 -25 32 -50 13 -25 26 -47 30
-50 3 -3 16 -23 29 -45 13 -22 27 -42 30 -45 4 -3 17 -26 29 -52 13 -27 26
-48 30 -48 4 0 18 -22 30 -50 12 -27 27 -50 32 -50 5 0 16 -17 24 -37 9 -21
21 -43 28 -48 16 -14 47 -73 47 -91 0 -8 6 -17 14 -20 7 -3 24 -26 37 -52 13
-26 27 -48 31 -50 4 -2 17 -24 29 -50 13 -26 26 -49 29 -52 4 -3 12 -15 19
-27 l12 -23 339 0 340 0 0 2120 0 2120 -291 0 -290 0 5 -1637 c2 -901 7 -1663
10 -1693 5 -48 4 -52 -6 -30 -7 14 -20 33 -30 44 -9 10 -20 32 -23 48 -4 16
-13 32 -19 34 -7 3 -23 27 -36 55 -13 27 -27 49 -32 49 -4 0 -8 6 -8 13 0 6
-9 23 -20 37 -11 14 -20 33 -20 43 0 9 -4 17 -10 17 -5 0 -19 20 -31 44 -11
25 -27 47 -35 50 -8 3 -14 12 -14 21 0 14 -26 63 -40 75 -3 3 -16 24 -28 48
-12 24 -31 52 -41 64 -11 11 -22 32 -26 46 -3 14 -17 37 -31 50 -13 14 -24 32
-24 41 0 10 -10 28 -22 41 -21 23 -58 87 -58 102 0 4 -11 19 -25 34 -14 15
-25 33 -25 40 0 7 -6 19 -14 26 -7 8 -23 33 -35 55 -11 23 -24 43 -28 45 -10
4 -63 104 -63 117 0 6 -11 22 -25 37 -14 15 -25 32 -25 38 0 6 -9 19 -20 29
-11 9 -20 25 -20 35 0 11 -10 30 -22 44 -13 14 -34 47 -48 74 -14 27 -31 55
-38 63 -7 7 -20 31 -28 52 -9 20 -21 40 -29 42 -7 3 -21 26 -30 51 -10 25 -21
46 -25 46 -5 0 -18 19 -30 43 -12 23 -25 44 -29 47 -4 3 -18 28 -31 55 -13 28
-32 59 -42 69 -10 11 -18 25 -18 32 0 6 -11 22 -23 35 -13 13 -27 35 -30 49
-3 14 -15 34 -25 45 -10 11 -29 43 -43 70 -13 28 -29 53 -35 57 -6 4 -17 22
-25 40 -7 18 -23 44 -36 57 -13 13 -23 32 -23 42 0 11 -9 28 -20 39 -11 11
-20 23 -20 28 0 4 -9 18 -20 32 -11 14 -20 33 -20 43 0 10 -6 20 -14 23 -8 3
-24 28 -35 55 -12 27 -25 49 -29 49 -4 0 -18 21 -32 48 -13 26 -27 49 -30 52
-3 3 -10 14 -16 25 -29 52 -40 70 -45 75 -4 3 -17 25 -30 50 -13 25 -29 49
-36 53 -7 4 -13 16 -13 26 0 10 -11 30 -25 45 -14 15 -25 30 -25 34 0 12 -41
84 -56 100 -9 8 -22 32 -31 53 -8 22 -19 39 -23 39 -5 0 -19 23 -31 50 l-23
50 -368 0 -368 0 0 -2120z"/>
</g>
</svg>
